<?xml version="1.0" standalone="no"?>
<!DOCTYPE svg PUBLIC "-//W3C//DTD SVG 20010904//EN"
 "http://www.w3.org/TR/2001/REC-SVG-20010904/DTD/svg10.dtd">
<svg version="1.0" xmlns="http://www.w3.org/2000/svg"
 width="16.000000pt" height="16.000000pt" viewBox="0 0 16.000000 16.000000"
 preserveAspectRatio="xMidYMid meet">
<metadata>
Created by potrace 1.11, written by Peter Selinger 2001-2013
</metadata>
<g transform="translate(0.000000,16.000000) scale(0.002802,-0.002802)"
fill="#000000" stroke="none">
<path d="M2600 5558 c-70 -10 -145 -19 -193 -23 -21 -1 -50 -6 -65 -11 -15 -4
-34 -8 -42 -9 -16 -1 -167 -34 -188 -40 -7 -3 -16 -5 -20 -6 -4 -1 -18 -6 -32
-11 -14 -5 -32 -11 -40 -13 -29 -7 -76 -23 -142 -48 -36 -14 -69 -23 -72 -20
-3 4 -6 1 -6 -5 0 -7 -9 -12 -20 -12 -11 0 -20 -4 -20 -8 0 -4 -10 -8 -22 -9
-11 -1 -24 -6 -27 -11 -6 -8 -38 -24 -53 -26 -3 -1 -10 -4 -14 -8 -4 -5 -16
-8 -26 -8 -11 0 -16 -4 -13 -10 3 -5 -3 -10 -14 -10 -12 0 -21 -5 -21 -11 0
-6 -7 -9 -15 -5 -8 3 -15 1 -15 -4 0 -6 -5 -10 -11 -10 -6 0 -23 -9 -39 -20
-15 -11 -30 -17 -34 -13 -3 3 -6 2 -6 -4 0 -5 -20 -20 -45 -32 -25 -12 -45
-27 -45 -32 0 -5 -6 -9 -14 -9 -8 0 -28 -11 -44 -25 -16 -13 -32 -22 -36 -18
-3 3 -6 -1 -6 -11 0 -9 -4 -15 -8 -12 -4 2 -28 -11 -52 -30 -25 -18 -50 -37
-55 -41 -26 -20 -133 -109 -155 -130 -115 -107 -231 -229 -290 -304 -19 -24
-40 -51 -47 -59 -7 -8 -35 -46 -62 -85 -28 -38 -54 -75 -60 -81 -5 -7 -7 -15
-4 -18 4 -3 1 -6 -5 -6 -7 0 -12 -7 -12 -15 0 -9 -7 -18 -15 -21 -8 -4 -13
-10 -10 -14 3 -5 0 -15 -7 -22 -19 -20 -31 -42 -90 -158 -29 -58 -57 -108 -63
-112 -5 -4 -7 -8 -2 -8 4 0 1 -13 -8 -30 -9 -16 -12 -30 -8 -30 5 0 3 -4 -3
-8 -10 -7 -49 -99 -49 -117 0 -5 -2 -12 -5 -15 -8 -8 -62 -162 -65 -185 -1
-11 -5 -27 -8 -35 -4 -8 -9 -26 -11 -40 -3 -14 -10 -43 -16 -65 -6 -22 -13
-57 -14 -77 -2 -20 -7 -41 -10 -47 -4 -5 -9 -33 -11 -61 -3 -28 -7 -55 -10
-60 -11 -18 -18 -160 -18 -370 0 -194 3 -259 18 -355 3 -16 7 -49 10 -72 3
-23 9 -52 13 -65 5 -13 8 -34 7 -48 0 -14 2 -27 6 -30 4 -3 9 -19 12 -35 2
-17 6 -37 9 -45 7 -18 42 -152 43 -162 0 -3 3 -10 8 -14 4 -4 7 -13 7 -21 0
-7 7 -29 15 -49 8 -19 14 -37 14 -39 1 -3 7 -20 15 -39 8 -19 12 -37 8 -40 -3
-3 0 -6 6 -6 7 0 12 -5 12 -10 0 -6 7 -26 15 -46 8 -19 15 -36 15 -39 1 -2 21
-43 45 -90 24 -47 41 -85 37 -85 -4 0 0 -5 8 -10 8 -5 15 -13 16 -17 1 -17 28
-63 36 -63 4 0 8 -5 8 -11 0 -6 14 -31 30 -56 17 -24 30 -47 30 -52 0 -4 8
-16 18 -27 9 -10 37 -48 62 -84 24 -36 49 -70 55 -76 5 -6 26 -30 45 -54 32
-40 75 -87 148 -165 56 -58 207 -193 308 -275 7 -5 15 -6 18 -3 3 4 6 -1 6
-11 0 -9 4 -14 10 -11 5 3 10 2 10 -3 0 -5 12 -15 27 -23 16 -8 33 -18 40 -24
38 -31 74 -54 96 -61 9 -4 17 -10 17 -15 0 -5 5 -9 10 -9 6 0 27 -11 48 -24
61 -38 214 -116 228 -116 8 0 14 -5 14 -11 0 -6 7 -9 15 -5 8 3 18 -2 23 -10
5 -9 11 -15 13 -13 2 1 20 -3 39 -11 19 -7 40 -14 45 -16 39 -12 111 -40 115
-44 3 -3 12 -5 20 -5 8 1 24 -5 35 -11 11 -7 41 -16 68 -19 26 -4 47 -11 47
-15 0 -7 40 -15 113 -24 15 -2 33 -8 40 -15 8 -6 24 -9 37 -6 12 2 31 0 42 -6
18 -10 47 -14 179 -24 30 -2 73 -8 95 -12 49 -11 326 -9 414 2 36 4 81 9 100
11 89 8 146 17 155 23 6 4 27 7 48 6 20 -1 37 2 37 6 0 4 15 9 33 12 17 3 52
11 77 17 25 6 52 12 60 13 9 2 20 6 26 9 6 4 21 9 35 12 37 7 123 37 137 48 6
6 12 8 12 5 0 -3 15 0 34 8 18 8 36 11 40 8 3 -4 6 -1 6 5 0 7 9 12 20 12 11
0 20 5 20 10 0 6 6 10 13 9 13 -2 49 11 57 20 3 4 30 17 60 31 30 13 72 35 93
47 20 13 37 21 37 18 0 -3 19 7 43 22 76 50 82 54 100 59 9 4 17 11 17 16 0 5
4 7 9 4 5 -3 11 1 15 9 3 8 12 15 21 15 8 0 15 5 15 11 0 5 4 8 9 5 5 -3 11 1
15 9 3 8 12 15 21 15 8 0 15 4 15 9 0 5 17 20 38 32 20 13 47 33 60 44 12 11
36 31 53 45 16 14 46 40 65 58 19 17 36 32 38 32 9 0 122 116 195 200 115 131
105 118 151 185 19 28 38 52 43 53 4 2 7 10 7 17 0 7 4 15 8 17 11 4 82 115
82 128 0 6 5 10 10 10 6 0 10 5 10 10 0 6 11 28 24 49 14 21 22 42 19 45 -4 3
-2 6 3 6 6 0 16 16 24 35 8 19 17 35 21 35 7 0 19 36 18 54 -1 5 3 12 8 15 8
5 34 55 39 74 1 4 3 9 4 12 1 3 3 8 4 13 1 4 9 23 18 42 23 48 96 267 103 309
3 19 9 39 12 45 4 5 8 21 9 34 2 14 6 32 10 41 4 9 8 27 9 41 1 14 3 25 4 25
5 0 19 95 27 174 2 25 8 58 12 75 10 36 9 519 -1 556 -4 14 -9 45 -12 70 -7
71 -15 122 -25 165 -5 22 -16 72 -25 110 -41 175 -137 453 -181 523 -8 12 -13
22 -10 22 2 0 -16 37 -40 82 -24 45 -44 85 -44 90 0 4 -4 8 -10 8 -5 0 -10 6
-10 14 0 8 -6 21 -12 28 -12 13 -22 28 -52 83 -6 10 -17 25 -23 33 -7 7 -13
17 -13 21 0 4 -9 17 -20 29 -12 12 -17 22 -13 22 4 0 3 4 -2 8 -6 4 -33 36
-60 72 -27 36 -56 72 -64 82 -9 9 -34 38 -56 64 -60 71 -223 234 -235 234 -5
0 -10 5 -10 10 0 6 -7 10 -16 10 -8 0 -12 5 -9 10 3 6 2 10 -2 10 -8 0 -56 38
-109 87 -13 12 -24 19 -24 16 0 -4 -10 3 -22 14 -31 29 -205 143 -218 143 -5
0 -10 4 -10 8 0 4 -15 15 -32 23 -18 9 -71 36 -118 60 -111 57 -203 99 -218
99 -7 0 -12 5 -12 11 0 5 -3 8 -7 6 -5 -3 -19 0 -33 6 -14 5 -32 11 -40 13 -8
2 -16 8 -18 14 -2 5 -7 8 -12 5 -5 -3 -19 -1 -32 4 -24 10 -55 20 -63 21 -3 0
-23 7 -45 15 -22 8 -41 14 -43 14 -1 -1 -21 4 -45 10 -24 7 -55 14 -70 16 -15
2 -34 6 -42 9 -32 12 -261 48 -267 42 -3 -2 -19 0 -36 6 -39 12 -401 17 -477
6z m505 -1227 c66 -18 135 -36 153 -41 49 -12 256 -116 313 -156 27 -19 51
-34 54 -34 3 0 17 -11 31 -25 14 -14 28 -25 32 -25 10 0 161 -149 202 -200 74
-92 165 -232 175 -270 1 -3 11 -25 22 -50 20 -45 28 -66 33 -85 1 -5 6 -17 11
-26 4 -9 10 -27 13 -40 3 -13 12 -50 20 -82 8 -32 18 -80 21 -105 4 -26 9 -58
11 -72 2 -14 6 -106 8 -205 3 -153 -1 -225 -17 -280 -5 -17 -16 -68 -21 -99
-3 -16 -17 -46 -31 -67 -14 -21 -25 -41 -25 -45 0 -5 -30 -56 -85 -145 -51
-83 -134 -195 -200 -269 -77 -88 -270 -270 -285 -270 -5 0 -10 -4 -12 -8 -1
-5 -28 -26 -58 -48 -30 -21 -59 -42 -65 -47 -33 -25 -102 -67 -112 -67 -6 0
-13 -4 -15 -9 -4 -12 -257 -138 -291 -145 -7 -2 -23 -8 -37 -13 -124 -51 -321
-101 -385 -98 -43 2 -63 6 -120 19 -5 2 -31 6 -58 11 -26 4 -50 11 -53 16 -3
5 -15 9 -28 9 -12 0 -26 4 -31 9 -6 4 -35 17 -65 27 -59 20 -232 102 -240 113
-3 4 -27 20 -55 36 -27 15 -66 40 -85 54 -44 32 -210 200 -210 212 0 5 -4 9
-9 9 -11 0 -98 128 -136 202 -17 32 -34 58 -38 58 -5 0 -5 4 -2 10 3 6 1 10
-6 10 -7 0 -10 3 -6 6 3 3 -3 21 -14 40 -20 37 -91 234 -84 234 3 0 0 12 -6
27 -5 14 -12 38 -14 52 -2 14 -6 37 -9 51 -11 48 -20 156 -20 245 0 100 10
251 17 262 3 5 8 24 11 43 3 19 8 46 12 60 3 14 7 34 8 45 1 11 5 29 9 40 3
11 8 31 11 45 12 63 28 123 35 135 3 6 6 16 8 24 1 8 13 39 26 70 13 31 27 63
31 71 3 8 10 22 14 30 5 8 13 24 19 35 10 21 51 94 74 135 29 50 168 199 249
267 89 74 90 75 135 103 22 13 42 27 45 30 3 4 28 17 55 30 28 13 57 30 67 38
9 7 22 15 30 16 7 1 31 10 53 20 74 33 231 82 298 92 18 3 55 9 82 13 28 5
133 7 235 6 171 -3 194 -5 305 -34z"/>
<path d="M2686 3349 l-96 -296 -306 -1 c-169 -1 -308 -3 -310 -4 -1 -2 105
-81 237 -177 131 -96 243 -179 247 -185 6 -7 -27 -125 -84 -301 -52 -159 -94
-291 -94 -293 0 -1 96 67 214 152 117 85 232 166 254 181 l40 26 242 -175
c134 -97 246 -176 251 -176 5 0 4 10 -1 23 -5 12 -48 141 -95 287 l-85 265 32
28 c18 15 130 99 249 185 119 86 216 158 214 160 -1 1 -141 4 -310 5 l-308 2
-89 275 c-49 151 -93 284 -97 295 -6 15 -32 -53 -105 -276z"/>
</g>
</svg>
