<?xml version="1.0" encoding="UTF-8" standalone="no"?>
<!-- Created with Inkscape (http://www.inkscape.org/) -->

<svg
   xmlns:dc="http://purl.org/dc/elements/1.1/"
   xmlns:cc="http://creativecommons.org/ns#"
   xmlns:rdf="http://www.w3.org/1999/02/22-rdf-syntax-ns#"
   xmlns:svg="http://www.w3.org/2000/svg"
   xmlns="http://www.w3.org/2000/svg"
   xmlns:sodipodi="http://sodipodi.sourceforge.net/DTD/sodipodi-0.dtd"
   xmlns:inkscape="http://www.inkscape.org/namespaces/inkscape"
   version="1.1"
   id="svg3713"
   width="340"
   height="257"
   viewBox="0 0 340 257"
   sodipodi:docname="logo-vector.svg"
   inkscape:version="0.92.3 (2405546, 2018-03-11)">
  <metadata
     id="metadata3719">
    <rdf:RDF>
      <cc:Work
         rdf:about="">
        <dc:format>image/svg+xml</dc:format>
        <dc:type
           rdf:resource="http://purl.org/dc/dcmitype/StillImage" />
        <dc:title></dc:title>
      </cc:Work>
    </rdf:RDF>
  </metadata>
  <defs
     id="defs3717" />
  <sodipodi:namedview
     pagecolor="#ffffff"
     bordercolor="#666666"
     borderopacity="1"
     objecttolerance="10"
     gridtolerance="10"
     guidetolerance="10"
     inkscape:pageopacity="0"
     inkscape:pageshadow="2"
     inkscape:window-width="1920"
     inkscape:window-height="1017"
     id="namedview3715"
     showgrid="false"
     inkscape:zoom="3.2996109"
     inkscape:cx="170"
     inkscape:cy="128.5"
     inkscape:window-x="1912"
     inkscape:window-y="-8"
     inkscape:window-maximized="1"
     inkscape:current-layer="svg3713" />
  <path
     style="fill:#000000"
     d="m 217.4092,253.57854 c -1.65,-0.76864 -4.15149,-1.41783 -5.55887,-1.44264 -1.40738,-0.0248 -3.43238,-0.70579 -4.5,-1.5133 -1.06762,-0.8075 -2.51341,-1.4825 -3.21287,-1.5 -1.86852,-0.0467 -12.22826,-10.7158 -12.22826,-12.59339 0,-2.21282 -2.25182,-1.27404 -3.65956,1.52565 -1.49956,2.9823 -3.18315,4.00172 -6.6401,4.02063 -7.23496,0.0396 -12.33704,-6.64336 -8.76799,-11.48469 0.95878,-1.30055 3.10439,-11.3114 3.58952,-16.74769 0.20871,-2.33877 0.67942,-6.74093 1.04602,-9.78258 0.53451,-4.43465 0.34746,-5.7951 -0.94415,-6.86703 -1.34999,-1.12039 -2.13782,-1.0921 -4.86722,0.17479 -1.79109,0.83135 -4.70686,1.8171 -6.47949,2.19055 -3.19166,0.6724 -8.27703,5.53894 -8.27703,7.92086 0,0.67949 -0.89313,3.08402 -1.98474,5.34339 -1.09161,2.25937 -2.72257,6.28139 -3.62435,8.93783 -0.90178,2.65643 -2.48364,5.90307 -3.51525,7.21474 -1.03161,1.31167 -1.87566,3.0292 -1.87566,3.81672 0,0.78753 -1.125,2.90681 -2.5,4.70953 -1.375,1.80272 -2.5,3.9417 -2.5,4.75328 0,0.81159 -1.59598,3.34016 -3.54662,5.61905 -4.6128,5.38901 -9.41074,6.5447 -13.03512,3.13977 -1.35844,-1.27619 -3.10506,-3.59357 -3.88137,-5.14972 -1.21094,-2.42738 -1.21281,-3.28718 -0.0132,-6.05144 0.76908,-1.77213 2.42836,-4.18625 3.6873,-5.36471 1.25893,-1.17846 3.16668,-3.87846 4.23944,-6 1.07276,-2.12154 2.47669,-4.53234 3.11985,-5.35734 1.71469,-2.19947 7.95347,-17.78106 9.19854,-22.97368 0.58998,-2.46053 0.79902,-4.91649 0.46453,-5.4577 -2.16624,-3.50505 -0.63678,-6.9872 4.27947,-9.74315 2.06899,-1.15984 4.38289,-4.38719 7.52815,-10.5 5.83884,-11.3478 14.31884,-25.63843 16.83139,-28.36454 5.79363,-6.28605 6.8631,-7.61176 7.44264,-9.22594 0.68013,-1.89431 4.54399,-3.73499 7.84028,-3.73499 2.6761,0 9.55098,4.96832 10.37807,7.5 0.35937,1.1 0.80718,8.64109 0.99515,16.75798 0.37486,16.18779 0.73701,18.27859 3.41427,19.71141 3.4299,1.83563 3.13775,4.81589 -0.9332,9.5195 -3.58492,4.14206 -3.87203,4.96223 -4.62553,13.21364 -1.12934,12.36702 -0.79723,18.16992 1.30864,22.86623 6.70737,14.95807 22.55811,20.55593 34.13737,12.05597 8.99013,-6.59937 19.04913,-22.03144 20.68955,-31.74101 l 0.69765,-4.1293 -4.6432,3.19461 c -2.55376,1.75703 -5.19015,2.99809 -5.85864,2.75791 -0.6685,-0.24018 -2.02009,-0.0225 -3.00353,0.48375 -0.98344,0.50624 -3.87589,0.60735 -6.42767,0.22469 -5.33117,-0.79946 -8.79852,-3.88149 -9.83762,-8.7444 -0.37267,-1.74404 -1.14229,-3.74743 -1.71028,-4.45198 -1.71162,-2.12316 -0.19711,-22.5057 2.12073,-28.54115 1.09367,-2.84782 2.73859,-7.32356 3.65538,-9.9461 2.14459,-6.13472 4.00301,-8.06143 6.49124,-6.72977 1.02565,0.54891 2.83743,0.99802 4.02619,0.99802 3.27294,0 7.63925,3.59568 8.28459,6.82241 0.41863,2.09312 -0.37379,4.74186 -2.92418,9.77438 -2.95401,5.82899 -3.5289,8.05501 -3.69435,14.30495 -0.12957,4.89416 0.19878,7.53838 0.96919,7.80505 0.64083,0.22182 1.45865,-0.52147 1.81739,-1.65174 0.35877,-1.13028 1.09427,-2.05505 1.63446,-2.05505 1.41155,0 7.88305,-6.4776 7.88305,-7.89047 0,-0.65364 1.575,-3.52717 3.5,-6.38563 1.925,-2.85846 3.5,-5.58042 3.5,-6.04881 0,-0.46838 1.35,-3.76828 3,-7.33312 1.65,-3.56483 3,-7.1845 3,-8.04371 0,-0.8592 0.93163,-3.0696 2.07029,-4.91199 1.13866,-1.84239 1.79934,-3.78819 1.46819,-4.32401 -0.33116,-0.53582 0.0643,-2.56903 0.87868,-4.51824 1.90212,-4.55242 5.33439,-4.72163 11.85783,-0.58458 5.64779,3.58172 6.9783,8.08844 4.44039,15.04056 -0.30117,0.825 -0.57231,2.175 -0.60255,3 -0.13144,3.58712 -2.31534,13.63857 -3.57225,16.44133 -0.75441,1.68227 -1.65203,5.12808 -1.9947,7.65737 -0.34268,2.52928 -1.50569,6.92161 -2.58446,9.76073 -1.07878,2.83911 -1.96142,6.25564 -1.96142,7.59228 0,1.33664 -0.45,2.70837 -1,3.04829 -0.55,0.33992 -1,1.85148 -1,3.35902 0,1.50754 -0.48697,3.22795 -1.08216,3.82314 -1.54617,1.54617 -5.92969,17.12337 -5.2887,18.79379 0.29501,0.76877 1.14264,1.16512 1.88363,0.88078 0.74098,-0.28435 2.84124,0.17122 4.66724,1.01237 8.228,3.79024 22.36505,2.47505 32.75023,-3.04681 8.70756,-4.62985 15.10957,-12.7282 14.64917,-18.53074 -0.33757,-4.25439 -5.38788,-11.65648 -9.68481,-14.19474 -4.69369,-2.77263 -13.73336,-12.57821 -14.92533,-16.18992 -1.13652,-3.44369 -0.76279,-9.24645 0.86982,-13.5052 1.13509,-2.96096 13.11842,-12.90169 15.5527,-12.90169 0.88452,0 1.60821,-0.42889 1.60821,-0.95308 0,-0.94661 1.92788,-1.92821 11.47685,-5.84355 4.52561,-1.85563 5.289,-1.91022 8.4198,-0.60209 3.65838,1.52857 6.16395,4.35689 7.29428,8.23386 0.52709,1.8079 0.0775,2.93835 -1.89602,4.76735 -1.42283,1.31863 -3.40841,2.39751 -4.41242,2.39751 -1.93537,0 -9.93463,3.61257 -16.06256,7.25405 -2.56509,1.52429 -3.85129,3.10474 -4.24521,5.21641 -0.51659,2.76918 0.29383,3.90741 9.43006,13.24461 5.49737,5.61829 9.99522,10.83666 9.99522,11.59637 0,0.7597 0.72843,2.84147 1.61874,4.62613 1.04728,2.09931 1.63839,5.94865 1.6744,10.90364 0.0452,6.21827 -0.37513,8.41114 -2.23465,11.65879 -1.25967,2.2 -2.72885,4.27671 -3.26484,4.61491 -0.53599,0.3382 -1.49633,1.65917 -2.13409,2.9355 -2.18974,4.38224 -18.20361,12.82356 -27.15956,14.31649 -9.80136,1.63386 -22.91139,0.97403 -27.53732,-1.38594 -2.17947,-1.11188 -3.96268,-1.80792 -3.96268,-1.54674 0,0.26118 -1.06896,-0.51717 -2.37548,-1.72967 -7.49688,-6.95744 -7.74852,-7.12066 -8.68828,-5.63562 -0.49809,0.78709 -0.91251,1.95078 -0.92093,2.58599 -0.008,0.6352 -2.82781,4.05346 -6.26531,7.59612 -6.11092,6.29788 -15.38928,11.82736 -23.21543,13.83535 -1.66902,0.42822 -3.93457,1.00816 -5.03457,1.28874 -1.1,0.28058 -3.35,-0.11874 -5,-0.88739 z m -42.88667,-73.50279 c 3.42983,-1.19565 5.65537,-5.52372 5.20298,-10.11838 -0.42508,-4.31725 -1.92135,-4.53473 -4.1947,-0.6097 -7.49883,12.94711 -7.50306,12.99217 -1.00828,10.72808 z M 58.828076,230.23043 c -2.220833,-0.74028 -10.301204,-9.37644 -11.699795,-12.50454 -1.805441,-4.03806 -0.704533,-6.81009 2.619283,-6.59522 4.72784,0.30562 5.24062,0.018 6.757485,-3.78987 0.821589,-2.0625 1.856332,-4.65 2.299429,-5.75 1.39069,-3.45242 3.247929,-8.882 4.10472,-12 0.4534,-1.65 1.281141,-4.35 1.839423,-6 0.558283,-1.65 1.959359,-6.375 3.113502,-10.5 1.154144,-4.125 2.775232,-9.62297 3.602417,-12.21772 1.49744,-4.69722 1.490811,-4.73589 -1.525684,-8.90004 -1.666312,-2.30027 -3.029658,-4.83429 -3.029658,-5.63115 0,-3.49429 3.217769,-7.87124 7.428363,-10.10437 4.238739,-2.24807 7.571637,-7.33303 7.571637,-11.55195 0,-2.11288 4.973633,-5.02114 6.306902,-3.68787 0.601204,0.60121 2.25297,1.0931 3.670592,1.0931 3.092969,0 7.022506,2.54976 7.022506,4.5567 0,2.81024 3.841262,5.4433 7.940982,5.4433 2.16754,0 4.2191,0.45 4.55902,1 0.33992,0.55 1.47779,1 2.5286,1 3.59895,0 13.94288,6.70573 19.24094,12.47345 3.91402,4.261 6.73046,12.45973 6.73046,19.59258 0,4.66193 -0.66185,7.30212 -2.98339,11.90106 -2.70401,5.35662 -17.77302,23.82037 -20.43037,25.03291 -2.2379,1.02115 -11.58624,8.45501 -11.58624,9.21345 0,0.4326 -0.5625,0.78843 -1.25,0.79074 -1.44358,0.005 -7.218733,2.89381 -17.433197,8.72084 -3.950758,2.25378 -8.186561,4.41624 -9.412896,4.80547 -1.226334,0.38922 -3.843896,1.40458 -5.816804,2.25636 -3.595829,1.55245 -9.575022,2.21717 -12.168227,1.35277 z m 20.181899,-24.2867 c 1.869573,-0.63089 5.334282,-2.43089 7.699355,-4 2.365073,-1.56911 4.533994,-2.85293 4.819825,-2.85293 1.210915,0 10.038005,-6.64876 14.765365,-11.12159 2.81307,-2.66162 5.39098,-4.84811 5.72868,-4.85886 0.3377,-0.0108 1.9127,-1.91691 3.5,-4.2359 1.5873,-2.319 3.6484,-4.9939 4.58022,-5.94423 5.49298,-5.60206 2.47166,-19.37524 -5.11027,-23.29601 -2.93492,-1.5177 -16.172328,-2.25296 -19.660436,-1.09201 -2.249175,0.74859 -5.423516,5.39107 -5.423516,7.93189 0,0.86609 -0.873822,4.39666 -1.941826,7.84571 -1.068004,3.44905 -2.904629,9.646 -4.081389,13.771 -1.17676,4.125 -2.945332,9.3 -3.930161,11.5 -2.726797,6.09136 -5.839922,17.5 -4.775303,17.5 0.236628,0 1.959883,-0.51618 3.829456,-1.14707 z m -43.600777,-74.7552 c -2.2,-0.39006 -4.9,-1.21437 -6,-1.83182 -1.1,-0.61744 -4.098057,-2.07591 -6.66235,-3.24104 -7.289254,-3.312 -13.288152,-9.23888 -16.941552,-16.73815 -2.77748,-5.7013 -3.29744,-7.95761 -3.57254,-15.502873 -0.39621,-10.86707 2.89406,-23.97872 9.43393,-37.593942 2.745728,-5.71627 17.718692,-21.76661 22.81264,-24.454115 12.73449,-6.718561 16.019183,-7.918024 22.865381,-8.349689 12.118733,-0.764107 27.315063,3.163669 33.831306,8.744335 5.260148,4.504915 10.657677,9.954782 12.700477,12.823632 1.90528,2.675711 2.30647,2.80913 5.66154,1.882751 2.50548,-0.691797 3.94162,-0.666364 4.69106,0.08307 0.59406,0.594064 2.34011,1.080113 3.88011,1.080113 3.93995,0 6.8,3.208641 6.8,7.628799 0,2.742612 -0.85473,4.574887 -3.5,7.502876 -1.925,2.13075 -3.5,4.39986 -3.5,5.04246 0,0.64261 -0.61081,1.87882 -1.35735,2.74712 -3.37162,3.92155 -6.18991,23.93149 -3.71868,26.40272 2.5659,2.56589 18.06514,-20.17277 18.08219,-26.52808 0.003,-1.26274 0.67839,-3.58483 1.5,-5.1602 0.82161,-1.57537 1.49384,-3.847871 1.49384,-5.050002 0,-1.202131 0.4239,-2.613193 0.942,-3.135693 0.51811,-0.5225 1.4027,-3.822093 1.96576,-7.332428 0.56307,-3.510335 1.15167,-6.468689 1.308,-6.574119 0.15633,-0.105431 2.05102,-1.004572 4.21042,-1.998093 3.05763,-1.406787 4.32665,-1.556306 5.73643,-0.67588 0.99564,0.621786 2.61623,1.13052 3.60131,1.13052 3.35631,0 6.45327,2.9985 5.79712,5.612805 -0.33057,1.317096 -0.15354,2.387195 0.39491,2.387195 1.19357,0 0.44016,5.100771 -1.47705,10 -0.75331,1.925 -2.59294,7.549995 -4.08806,12.499995 -1.49511,4.95 -3.09469,9.4275 -3.55462,9.95 -0.45992,0.5225 -0.84385,2.3225 -0.85317,4 -0.0284,5.11804 -4.69924,20.869303 -6.60078,22.259753 -2.17511,1.59047 -6.59299,1.67953 -8.10905,0.16347 -1.46379,-1.46379 -5.78191,-0.36453 -8.24547,2.09903 -1.05677,1.05677 -3.19637,2.58071 -4.75468,3.38654 -5.24857,2.71414 -17.03147,-1.10445 -20.446903,-6.6264 -3.139159,-5.07529 -4.848324,-12.234303 -4.472571,-18.733833 0.453229,-7.83964 2.136667,-17.17759 3.584458,-19.88281 1.391846,-2.60069 -1.014435,-5.11575 -4.894475,-5.11575 -1.952032,0 -3.382765,-0.84206 -4.672454,-2.749995 -2.637715,-3.902172 -4.339901,-9.881226 -3.151444,-11.069683 2.34434,-2.34434 -3.769497,-8.457179 -11.160508,-11.158688 -11.183415,-4.08768 -25.698649,0.02883 -36.066275,10.228371 -1.537426,1.5125 -3.28413,2.75 -3.881565,2.75 -1.785303,0 -13.361321,17.786495 -12.491743,19.193505 0.303923,0.49176 0.0289,1.52511 -0.611157,2.29633 -1.694971,2.04232 -3.933441,12.2205 -3.960945,18.01016 -0.03523,7.41616 2.388743,15.330963 5.646517,18.437123 6.849452,6.53069 8.769558,7.2855 18.108637,7.11869 4.783546,-0.0854 9.822356,-0.15629 11.197356,-0.15745 1.375,-0.001 5.425,-1.08024 9,-2.39794 6.124206,-2.25731 8.239489,-2.74587 17.13787,-3.95824 3.327746,-0.4534 3.682331,-0.2632 4.159412,2.23108 0.286848,1.49971 0.224806,3.22287 -0.13787,3.82926 -2.530757,4.23136 -6.847236,7.59556 -13.729236,10.70038 -7.170066,3.23478 -8.984529,3.62209 -18.930176,4.04086 -6.05,0.25474 -12.8,0.14403 -15,-0.24603 z m 197.500002,-7.547 c -1.375,-0.75812 -3.19853,-2.63105 -4.05228,-4.16208 -1.6694,-2.9937 -1.15043,-6.40884 2.49046,-16.38865 0.90294,-2.475 1.82322,-5.289193 2.04507,-6.253753 0.22185,-0.96457 0.70293,-2.23847 1.06906,-2.83088 0.36613,-0.59241 1.25449,-3.40322 1.97413,-6.24624 1.4369,-5.67661 3.96024,-13.04374 5.54225,-16.18115 0.55801,-1.10662 1.14204,-3.13162 1.29786,-4.5 0.15582,-1.36839 0.81209,-3.75477 1.45838,-5.303075 0.64629,-1.548304 1.17507,-3.884247 1.17507,-5.190983 0,-1.306736 0.40028,-2.62327 0.88951,-2.925632 0.48923,-0.302361 1.1288,-2.016419 1.42125,-3.809017 0.29246,-1.792597 1.32795,-7.010486 2.3011,-11.595309 2.38964,-11.25836 2.03445,-11.743695 -8.33874,-11.39432 l -8.00578,0.269639 -2.76898,-3.630321 c -1.65478,-2.169525 -2.96358,-5.356763 -3.25259,-7.920815 -0.65054,-5.7716366 1.32636,-6.8484816 10.84988,-5.9100576 l 7.0156,0.6912986 3.41846,-3.7320936 c 3.35142,-3.658895 3.52194,-3.718118 8.69438,-3.019556 2.90175,0.391895 5.95091,1.04021 6.77591,1.440699 2.29981,1.116425 15.67762,0.372544 23.5,-1.306733 3.85,-0.826502 9.24354,-1.992467 11.98564,-2.591034 4.48142,-0.97823804 5.4422,-0.85403704 9.5,1.22808 3.38875,1.738818 4.59183,2.974136 4.82505,4.954368 0.43298,3.6764186 -4.08681,8.5383656 -8.71069,9.3701036 -1.98,0.35616 -4.05,0.980234 -4.6,1.386832 -0.55,0.406598 -4.15,1.288204 -8,1.959124 -6.39811,1.114967 -19.11185,3.771777 -22.31895,4.664029 -0.85425,0.23766 -1.08143,1.115325 -0.64479,2.491032 0.37078,1.168247 0.19241,3.082963 -0.3964,4.254926 -0.58881,1.171962 -1.5137,4.38084 -2.05531,7.13084 -2.12883,10.808887 -3.05696,14.49821 -4.54077,18.04947 -0.84908,2.032128 -1.54378,4.551848 -1.54378,5.599377 0,2.002928 -4.59977,17.111668 -6.11555,20.087588 -0.48645,0.95503 -0.88445,2.55253 -0.88445,3.55 0,0.99746 -0.39721,2.24106 -0.88268,2.76356 -0.78596,0.84591 -3.65394,10.65281 -4.66449,15.950003 -0.53431,2.80079 -4.08223,12.93901 -5.37039,15.34596 -0.93952,1.7555 -6.33931,5.21645 -7.98608,5.1186 -0.328,-0.0195 -1.72136,-0.65571 -3.09636,-1.41383 z m -71.694,-16.0077 c -4.3168,-1.49733 -7.306,-5.178 -7.306,-8.996043 0,-1.73084 -0.4097,-3.57449 -0.91044,-4.09699 -1.46445,-1.52806 3.54944,-13.75029 11.87607,-28.95 2.71169,-4.949995 4.7484,-9.548084 4.52603,-10.21797 -0.22237,-0.669886 0.0252,-1.483403 0.55007,-1.807815 1.00685,-0.622266 6.31895,-11.265101 6.47575,-12.97421 0.0504,-0.55 0.62513,-2.254858 1.27704,-3.788573 0.81841,-1.925404 0.94046,-5.07387 0.39428,-10.171497 -0.81832,-7.63766 -0.2503,-10.709505 2.55312,-13.807251 1.72877,-1.910266 3.39564,-1.832502 12.10506,0.564732 6.22752,1.714101 7.04283,3.925532 4.68318,12.702589 -0.36966,1.375 -0.80774,3.4 -0.97351,4.5 -0.16577,1.1 -0.39655,2 -0.51284,2 -0.11628,0 -0.80706,2.475 -1.53505,5.5 -2.55168,10.602918 -7.06352,22.13308 -10.62571,27.154365 -1.03568,1.45991 -1.88305,3.21633 -1.88305,3.90316 0,0.68683 -1.37368,4.15619 -3.05262,7.70968 -1.67894,3.55348 -2.88022,6.63329 -2.6695,6.84401 0.73901,0.73901 5.25702,0.53347 8.85637,-0.40292 8.34118,-2.16999 26.27538,-0.8295 28.74705,2.14869 3.12331,3.76335 -2.41474,8.01501 -13.8813,10.65693 -3.025,0.69696 -7.75,2.36066 -10.5,3.6971 -2.75,1.336443 -7.475,3.358043 -10.5,4.492443 -3.025,1.1344 -5.95,2.39026 -6.5,2.79078 -1.86864,1.36081 -7.98802,1.66081 -11.194,0.54879 z"
     id="path3734"
     inkscape:connector-curvature="0" />
</svg>
